<svg xmlns="http://www.w3.org/2000/svg" viewBox="0 0 768 768" fill="none">
  <defs>
    <linearGradient id="grad1" x1="0%" y1="0%" x2="100%" y2="100%">
      <stop offset="0%" style="stop-color:#22d3ee;stop-opacity:1" />
      <stop offset="100%" style="stop-color:#14b8a6;stop-opacity:1" />
    </linearGradient>
  </defs>
  <path d="M384 88L116 237v294l268 149 268-149V237L384 88z" fill="url(#grad1)" opacity="0.2"/>
  <path d="M384 130L150 265v238l234 130 234-130V265L384 130z" fill="url(#grad1)" opacity="0.3"/>
  <path d="M384 172L184 293v182l200 111 200-111V293L384 172z" fill="url(#grad1)" opacity="0.5"/>
  <path d="M250 320l134 75 134-75-134-75-134 75z" fill="#22d3ee"/>
  <path d="M250 420l134 75V395l-134-75v100z" fill="#0ea5e9"/>
  <path d="M518 420l-134 75V395l134-75v100z" fill="#06b6d4"/>
  <path d="M300 280l84 47 84-47-84-47-84 47z" fill="#22d3ee" opacity="0.8"/>
</svg>
